<?xml version="1.0" encoding="utf-8"?>
<!-- Generator: Adobe Illustrator 25.1.0, SVG Export Plug-In . SVG Version: 6.00 Build 0)  -->
<svg version="1.1" id="Ebene_1" xmlns="http://www.w3.org/2000/svg" xmlns:xlink="http://www.w3.org/1999/xlink" x="0px" y="0px"
	 viewBox="0 0 386.1 653.2" style="enable-background:new 0 0 386.1 653.2;" xml:space="preserve">
<style type="text/css">
	.st0{fill-rule:evenodd;clip-rule:evenodd;fill:#FFFFFF;}
</style>
<g id="Ebene_2_1_">
</g>
<g id="Ebene_3">
	<path class="st0" d="M96,251.6c-1.1-1.9-8.6-14.1-8.6-14.1c1.3,1.7-13.3-7.8-20-13.8c-16.6-15-22.4-20.4-31.4-40.3
		c-2.5-5.5-4.5-11.2-6-17c-2.5-9.3-4.1-18.7-4.8-28.3c-0.6-12.4-1.7-27.7,5.2-38.8c0,0,0,14,0.1,16.5c0.5,14.6,1.7,31.5,9,50.8
		c1.6,4.2,0.5,2.5,4.5,10.3c0,0-0.3-4.2,2.1-22.1c1.2-9.5,6.3-25.3,6.3-25.3s-0.5-5.8-0.8-11.4C49.1,76.6,80,56.5,80,56.5
		s-2.5,4.6-2.6,4.6c-9,14.7-17.3,31.8-15.2,52.4c7.2-8,13.1-10.8,23.1-12.4c-9.4,7.1-16.7,16.8-20.8,27.9c3,5.6,6.4,11.1,10.2,16.3
		c6.9,9,12.7,9.9,12.7,9.9c5.7-14.9,12.7-29.2,19.7-43.5c6.1-12.5,12.3-25.6,12.4-39.8c0.1-7.6-1.6-15.1-4.8-21.9
		c-2.2-4.3-5.5-8.1-8.7-11.8c6.9-1,14.6,10.6,17.1,15.9c1.4,3.2,2.4,6.4,3,9.8c7.1,32.3-10.2,62.7-19.8,92.3
		c-2.9,8.7-5.1,17.7-6.3,26.8c-1.9,15.2,1.4,30.6,7.2,44.6c3.2,7.5,8.4,13.9,15,18.6c4.2,3,15.7,6.6,16.7,5.7
		c5.4-4.8,7.4-17.5,5.3-25.3c-2.1-8-5.5-15.5-10.2-22.3c-2.5-3.4-5.8-7.6-9.4-10c0.6,0.4,2-2.7,14.1,5.4c5.3,3.6,19.6,17.9,25,40
		c0.2,0.9,1.6,11.2,2.4,11.2c4-0.3,4.6-0.2,5.9,0c3.3,0.5,5.6,3,8.5,4.6c9.2,5.1,24.6,5.1,34.6-0.3c0.3-0.2,5.3-2.8,5.6-3.3
		c0,0,0.3-4.3,0.6-6.1c2.4-14.2,7.5-25.9,16.7-36.9c2.9-3.5,6-6.8,9.4-9.8c2.6-2.2,5.7-4,8.9-5.1c0.5-0.1,4.1-0.7,4.6-0.2
		s-6,3.6-12.5,13.1c-6,8.8-9.2,20.7-7.4,31.6c0.6,3.6,2.6,12.1,6.6,13.6c2.8,1,8.5-1.1,10.5-2c22.8-10.8,29.1-40.9,27.6-63.7
		c-0.7-8.8-2.4-17.5-5-25.9c-3.3-11.4-6.5-22.9-10.6-34c-5.4-14.8-12.4-29.3-11.9-45.4c0.3-10.8,2.2-23.4,8.6-32.4
		c3.2-4.5,6.8-9,13.1-10.8h1.5c-1.6,1.6-3.1,3.5-4.9,5.1c-6.3,6-8.7,16.5-9.5,24.8c-1.7,19,8.3,34.7,15.6,51.3
		c5.6,12.7,12.5,22.3,16.4,35.7c13.5-13.5,17.9-23.3,17.9-23.3c0.1-1.8-2.6-7.7-3.5-9.7c-4.1-9-6.8-13-13.7-20.9
		c0,0,6.2,1.7,13.7,9.2c3.8,3.8,8.8,11.3,8.8,11.3s4.3-11.4,1.5-28.5c-3.1-19.1-8.3-23.7-17.6-37.3c12.5,8.7,19.6,14.8,24.8,27.7
		c3.1,7.6,4.8,8.2,5.1,22c0.5,19.8-5,29.7-5,29.7s3.4,6.3,7.5,22.3c3.8,14.8,3.7,23.7,3.7,23.7c0-0.3,9.3-5.9,12.3-40.9
		c1.3-15.6,1.1-38.6,2.8-38.5c1.1,0.1,8.4,50.5-0.8,72.7c-13.2,31.9-56.4,63.1-56.4,63.1s-3,5.2-4.1,7.8
		c-2.1,5.2-11.8,13.7-11.8,13.7c-1.6,2.9-2.6,6.4-1.2,12.6c8.2-6.2,11.6-0.6,15.6,3.7c10.5,11.4,20.3,23.4,31.6,34
		c5.1,4.8,10.1,9.7,17.2,11.4c3.3,0.8,2.8,2.9,1.3,4.9c-2.9,4.1-7.3,5.2-11.9,6.2c-7,1.6-14.2,0.2-22.5,0.2c3.3,3.8,6.6,4.8,9.8,5.6
		c7.2,1.8,14.6,2.7,22,2.6c5.5,0,5.8,2.2,3.5,6.4c-3.5,6.4-9.2,11.3-16,13.8c-2.1,0.8-4.5,1.1-6.4,3.3c5.9,2.6,9.4,4.4,17.4,3l0,0
		c8-1.3,10.9,37.3,1.2,54.3c-4.4,7.8-5.6,8.3-12.7,3.1c-1.9-1.4-3.4-3.8-6.2-4.2c1.5,7.7,3.2,14.9,4.2,22.2
		c1.3,9.3-0.1,17.8-9.4,22.9c-1.1,0.6-0.8,1.5-0.4,2.2c1.8,3.2,0.2,6.4-0.1,9.6c-0.8,6.6-0.8,13,2.8,19c1,1.5,3.3,3.1,1.7,5.1
		c-1.3,1.6-3.7,0.9-5.6,0.7c-6.9-0.7-13.1-3.9-20.4-7c5.1,8.5,13.7,9.2,21.3,12.7c-3.5,2.7-6.5,3.2-9.5,3.7
		c-10.8,1.7-20.3-1.7-28.8-8c-3-2.2-4.3-2.9-5.5,1.7c-6.6,26.7-24.5,44-47.9,56.7c-1.3,0.7-2.9,1.9-4.2,0.9
		c-1.6-1.1-0.2-2.8,0.1-4.2c0.6-2.2,2.2-4.2,1.1-7.6c-7.6,10.3-15.5,19.5-23.6,28.5c-9.2,10.3-9.4,10.4-18.5,0.3
		c-8.3-9.3-16.3-18.9-24.5-28.5c-0.6,4.5,3,7.8,2.9,12.2c-0.8,0.1-1.6,0-2.4-0.2c-22.4-11.2-40.1-26.9-48.9-51.1
		c-3.7-10.1-3.5-10.1-13.3-4.8c-10.3,5.6-20.8,6.3-32.8,0.7c8.1-3.8,16.4-4.6,22-12.9c-8.1,3.1-14.4,6.6-21.7,7.1
		c-3.7,0.3-6.5-0.2-3.5-4.8c4.4-6.8,5.1-14.2,3.2-22c-0.8-3.2-0.9-6.4,0.3-8.1c-17-14.3-8.1-31-5.4-47.6c-3,2.3-5.2,4.1-7.5,5.7
		c-6.1,4.2-9.5,3.8-13.1-2.6c0,0-4-6.7-5.8-21.5c-1.2-10.4-1.2-21,0-31.4c1.4-3.4,3.9-3.4,7-2.6c6.5,1.7,12.3-0.4,19.4-3.3
		c-3.6-1.6-6.1-2.8-8.6-3.9c-6.1-2.6-11.1-7.2-14.2-13c-2.4-4.2-1.8-6.3,3.6-6.5c5.9-0.1,11.7-0.7,17.5-1.6c4.9-0.8,9.9-1.8,14.5-7
		c-8.7,0.9-16.1,1.7-23.4,0.2c-3.9-0.8-7.6-2-10.3-5.1c-2.2-2.5-3.1-4.9,1.3-6.2c5.8-1.8,10.2-5.7,14.6-9.7
		c11.3-10.3,21-22.1,31.3-33.3c5-5.4,9.1-13.4,19.4-4.8c-2.2-5-0.7-2.5-5.4-13L96,251.6z M56.9,164.1c-1.2,11.2-0.8,22.5,1.4,33.5
		c3,4.4,6.8,8.2,11.1,11.4c11,8,11.4,6.4,11.4,6.4c-4.1-23.8-0.2-39.8-0.2-39.8s-12.6-9.8-16.7-17.5s-4.8-9.5-4.8-9.5
		C58.6,151.3,58.1,152.9,56.9,164.1z M305.3,176c0,0,0.7,9.7,1.3,13.2c1.5,9,0.5,13.9,0.3,23.2c4.7-1.6,9.1-4.2,12.7-7.6
		c3.8-3.5,7.4-7.3,10.5-11.4c0,0-0.7-27.8-5.6-43.1C319.9,161.9,305.3,176,305.3,176L305.3,176z M230.3,494.9
		c-6.3,12.3-22.5,18.6-35.7,17.9c-13.3,0.9-29.8-5.4-36.2-17.9c-7.5-14.6,4.3-25.2,17.8-27.8c14.2-2.7,26.3-2,40.4,0.8
		c1.5,0.3,2.5,0.5,2.8,0.6C230.6,472.7,235.8,484.1,230.3,494.9L230.3,494.9L230.3,494.9z M269.5,385.9c-2.8,8-6.3,15.9-10.3,23.4
		c-0.9,1.7-2.1,3.3-3.6,4.5l-13.7-6.1l11.4,9.9c-0.1,1.4,0.1,2.9,0.4,4.3c2.3,9.8,4.4,17.7-0.6,27.3c-2,4-5.1,7.3-9,9.5
		c-3.1,1.4-6.4,2.3-9.8,2.6c-7.3,0.9-14.8,0.8-22.1-0.3c-3.5-0.5-7-1.4-9.9-3.5c-13.4-9.8,0.9-23.2,9.6-28.5
		c4.1-2.5,6.9-5.3,4.9-10.7c-1.8-4.9-5.4-4.8-9.6-4.8c-8.7,0.1-17.3,0.1-25.9,0c-4.1-0.1-7.8-0.1-9.6,4.8c-2,5.4,0.9,8.2,4.9,10.7
		c8.8,5.3,23.1,18.7,9.6,28.6c-2,1.5-4.4,2.5-6.9,3c-8.4,1.6-17,1.9-25.4,0.8c-3.2-0.3-6.4-1.2-9.3-2.5c-3.9-2.2-7-5.5-9-9.5
		c-5-9.6-2.9-17.6-0.6-27.3c0.4-1.4,0.5-2.8,0.4-4.3l11.4-9.9l-13.7,6.1c-1.5-1.3-2.7-2.8-3.6-4.5c-4-7.5-7.5-15.3-10.3-23.4
		c-4.4-12.5-2.2-22.3,6.8-31.8c7.6,14.7,19,20.9,35.3,20.2c9.2-0.4,3.4,11.4,8.4,15.5c7.1-20.5,1.5-29.6-20-31.9
		c-15.2-1.6-24.4-9.1-22.6-18.3c5.3-27.9,34.6-24,53.1-12.6c1.7,1.1,3.6,2.5,5.6,3.8c5.2,3.6,12,3.6,17.1,0c2-1.3,3.8-2.7,5.6-3.8
		c18.5-11.4,47.8-15.3,53.1,12.6c1.8,9.2-7.4,16.7-22.6,18.3c-21.5,2.3-27.2,11.4-20,31.9c5-4.1-0.9-15.9,8.4-15.5
		c16.3,0.7,27.8-5.5,35.3-20.2C271.7,363.6,273.9,373.4,269.5,385.9L269.5,385.9z"/>
</g>
</svg>
